<?xml version="1.0" standalone="no"?>
<!DOCTYPE svg PUBLIC "-//W3C//DTD SVG 20010904//EN"
 "http://www.w3.org/TR/2001/REC-SVG-20010904/DTD/svg10.dtd">
<svg version="1.0" xmlns="http://www.w3.org/2000/svg"
 width="1920.000000pt" height="1920.000000pt" viewBox="0 0 1920.000000 1920.000000"
 preserveAspectRatio="xMidYMid meet">

<g transform="translate(0.000000,1920.000000) scale(0.100000,-0.100000)"
fill="#000000" stroke="none">
<path d="M1697 17700 c-26 -5 -77 -18 -114 -30 -288 -93 -500 -320 -576 -619
l-22 -86 0 -5610 c0 -5315 1 -5614 18 -5678 83 -327 316 -562 640 -650 l82
-22 2867 -5 2866 -5 -60 -110 c-364 -663 -489 -1282 -352 -1742 l6 -23 -378 0
c-431 0 -478 -6 -629 -80 -172 -84 -292 -205 -375 -375 -81 -169 -83 -177 -87
-610 -4 -274 -1 -391 7 -420 17 -57 56 -105 105 -126 42 -19 141 -19 3918 -17
l3875 3 43 30 c83 59 84 63 87 455 3 370 -4 464 -42 576 -87 257 -266 436
-526 526 l-95 33 -404 3 -403 3 7 22 c111 375 49 856 -180 1387 -43 100 -159
332 -204 408 -17 29 -31 55 -31 57 0 3 1290 6 2868 8 l2867 2 82 22 c325 88
557 323 640 650 17 64 18 363 18 5678 l0 5610 -23 90 c-75 298 -299 530 -607
628 l-70 22 -7885 1 c-4337 1 -7906 -2 -7933 -6z m15803 -408 c131 -47 240
-150 292 -279 l23 -58 3 -5565 c1 -3971 -1 -5580 -9 -5618 -35 -172 -170 -311
-346 -357 -50 -13 -976 -15 -7863 -15 -6977 0 -7812 2 -7865 15 -169 45 -307
182 -344 346 -7 29 -11 1888 -11 5594 0 6049 -4 5599 54 5713 65 126 195 219
341 242 28 4 3562 7 7855 6 l7805 -1 65 -23z m-6148 -12422 c94 -151 241 -443
302 -600 101 -261 145 -453 153 -670 8 -238 -20 -360 -128 -540 -48 -81 -50
-88 -47 -147 3 -51 9 -69 34 -99 17 -21 43 -47 58 -58 27 -20 41 -21 594 -26
563 -5 567 -5 624 -28 130 -52 225 -154 262 -281 13 -43 16 -105 16 -298 l0
-243 -3620 0 -3620 0 0 244 c0 215 2 252 20 308 45 145 166 255 318 287 35 7
226 11 573 11 446 0 525 2 557 15 49 21 81 52 103 100 29 62 24 114 -16 187
-115 205 -145 313 -145 518 0 236 56 478 183 786 78 191 221 462 319 607 l39
57 1672 -2 1672 -3 77 -125z"/>
<path d="M2249 16530 c-47 -25 -86 -71 -99 -118 -7 -25 -10 -1636 -10 -5062 0
-4839 1 -5026 19 -5065 23 -51 79 -101 128 -114 53 -15 14573 -15 14626 0 49
13 105 63 128 114 18 39 19 226 19 5065 0 3426 -3 5037 -10 5062 -14 48 -53
94 -101 118 -38 20 -112 20 -7351 20 -7189 -1 -7314 -1 -7349 -20z m14411
-5170 l0 -4800 -7060 0 -7060 0 0 4800 0 4800 7060 0 7060 0 0 -4800z"/>
<path d="M3940 15161 c-53 -17 -91 -43 -118 -83 -23 -35 -27 -52 -27 -109 0
-59 4 -73 30 -110 17 -23 48 -52 70 -63 l40 -21 5665 0 5665 0 40 21 c22 11
54 40 70 63 26 37 30 51 30 110 0 57 -4 74 -28 109 -15 23 -46 52 -70 64 l-42
23 -5650 2 c-3107 1 -5661 -2 -5675 -6z"/>
<path d="M3905 13946 c-16 -8 -42 -26 -57 -42 -97 -104 -65 -264 64 -319 34
-13 404 -15 3565 -15 l3527 0 44 21 c50 24 89 78 103 139 18 80 -26 172 -101
210 -39 20 -64 20 -3577 20 -2934 -1 -3543 -3 -3568 -14z"/>
<path d="M12737 13944 c-26 -14 -723 -506 -842 -594 -93 -70 -115 -106 -115
-191 0 -73 28 -118 107 -176 359 -264 843 -598 881 -610 76 -22 145 -1 199 61
58 65 67 144 26 224 -16 30 -83 82 -338 264 -175 125 -322 231 -327 236 -5 5
129 106 308 233 174 123 327 237 340 252 79 94 46 239 -68 298 -45 23 -131 25
-171 3z"/>
<path d="M13271 13938 c-28 -14 -54 -37 -72 -67 -56 -87 -58 -79 207 -776 145
-381 247 -633 263 -654 61 -78 169 -98 254 -47 57 33 87 81 94 148 5 50 -6 82
-222 648 -260 682 -257 675 -293 714 -56 59 -151 74 -231 34z"/>
<path d="M14272 13939 c-58 -29 -94 -85 -100 -153 -6 -69 10 -114 53 -156 18
-18 168 -128 331 -244 164 -116 299 -215 300 -221 2 -5 -130 -104 -293 -220
-349 -247 -348 -246 -373 -296 -34 -66 -21 -168 28 -222 52 -57 163 -78 232
-42 42 22 854 597 894 634 38 34 66 96 66 146 0 48 -28 112 -61 141 -47 42
-887 634 -914 644 -44 17 -117 12 -163 -11z"/>
<path d="M5390 12744 c-84 -36 -113 -88 -120 -213 l-5 -93 -65 -24 c-36 -14
-100 -41 -143 -61 l-78 -37 -57 56 c-31 31 -71 63 -89 72 -41 21 -125 21 -166
0 -44 -22 -534 -510 -558 -556 -21 -41 -25 -120 -9 -163 6 -15 37 -55 70 -89
l60 -63 -26 -59 c-15 -32 -42 -97 -59 -144 l-33 -85 -98 -5 c-105 -6 -124 -12
-166 -57 -57 -59 -58 -70 -58 -468 0 -392 2 -409 53 -463 40 -43 78 -56 176
-62 l93 -5 24 -64 c13 -35 40 -100 60 -144 l36 -79 -60 -62 c-34 -33 -66 -74
-71 -89 -17 -45 -13 -124 8 -165 29 -54 517 -538 563 -557 86 -35 164 -13 250
72 55 55 58 56 85 43 15 -7 80 -35 143 -60 l115 -47 5 -94 c5 -103 20 -140 70
-182 17 -15 47 -31 68 -37 53 -14 729 -13 773 1 48 16 96 54 116 92 11 21 19
65 23 126 l5 94 115 47 c63 25 128 53 143 60 27 13 30 12 85 -43 86 -85 164
-107 250 -71 50 20 535 504 562 560 22 44 26 117 10 159 -6 15 -38 56 -71 91
l-61 63 44 103 c25 57 52 121 60 143 l14 40 94 5 c61 4 106 12 126 23 43 22
81 70 94 115 6 22 10 180 10 395 0 384 -2 401 -53 455 -41 44 -78 57 -176 62
l-94 5 -24 65 c-14 36 -40 100 -60 144 l-35 78 55 57 c30 31 62 70 71 88 22
44 20 125 -3 171 -24 46 -514 534 -558 556 -36 18 -118 21 -158 6 -15 -6 -56
-38 -91 -72 l-64 -61 -77 36 c-43 20 -107 47 -143 59 l-65 23 -5 95 c-7 127
-36 179 -122 215 -55 22 -755 22 -808 -1z m540 -446 c0 -118 53 -181 179 -213
121 -31 255 -85 365 -147 99 -55 117 -62 166 -62 62 0 102 17 161 71 l40 37
92 -92 91 -91 -46 -49 c-86 -92 -89 -162 -9 -302 64 -113 114 -233 145 -348
31 -115 48 -146 98 -179 33 -23 55 -28 115 -31 l73 -4 0 -134 0 -134 -65 0
c-77 0 -131 -23 -168 -72 -14 -18 -39 -82 -57 -142 -39 -139 -77 -229 -142
-342 -79 -138 -77 -208 9 -304 l46 -52 -91 -91 -91 -91 -46 43 c-86 80 -164
92 -256 41 -183 -102 -289 -146 -443 -186 -115 -30 -166 -94 -166 -209 l0 -65
-135 0 -135 0 0 63 c-1 125 -52 183 -197 222 -148 39 -233 75 -412 175 -94 53
-173 39 -259 -43 l-42 -41 -90 89 c-50 49 -90 94 -90 99 0 5 20 30 44 56 43
46 66 98 66 150 0 13 -38 101 -85 195 -56 112 -94 202 -110 265 -34 125 -57
173 -97 203 -36 28 -100 46 -160 47 l-38 0 0 130 0 130 58 0 c122 1 180 52
223 200 43 148 81 242 143 351 85 148 85 214 -1 309 l-46 52 91 91 92 91 37
-36 c55 -52 99 -72 163 -72 48 0 66 6 145 52 117 67 230 115 353 148 160 43
204 87 210 211 l4 73 134 0 134 0 0 -62z"/>
<path d="M5603 11805 c-321 -58 -614 -278 -762 -573 -169 -336 -143 -750 66
-1065 156 -234 409 -403 688 -458 43 -9 127 -14 215 -13 122 1 161 6 245 28
308 81 558 285 697 571 74 153 100 268 102 445 1 161 -11 238 -56 370 -99 286
-336 531 -618 639 -170 66 -400 88 -577 56z m342 -396 c28 -6 92 -31 144 -56
177 -84 311 -254 357 -448 11 -51 15 -100 12 -180 -8 -181 -65 -311 -193 -440
-130 -130 -259 -186 -445 -193 -97 -4 -129 -1 -195 17 -221 61 -396 227 -469
445 -130 386 140 808 554 866 62 9 161 4 235 -11z"/>
<path d="M7752 12749 c-70 -21 -132 -111 -132 -195 0 -74 71 -161 151 -184 21
-6 620 -10 1615 -10 1350 0 1588 2 1629 14 170 52 189 281 31 361 l-50 25
-1605 -1 c-980 0 -1619 -5 -1639 -10z"/>
<path d="M8836 11545 c-57 -20 -87 -45 -113 -95 -57 -107 0 -247 115 -280 26
-8 987 -10 3239 -8 l3201 3 43 30 c123 87 116 261 -14 336 l-42 24 -3195 2
c-2725 2 -3201 0 -3234 -12z"/>
<path d="M8815 10331 c-140 -63 -154 -254 -27 -342 l36 -24 3205 -3 c1763 -1
3221 0 3239 3 18 3 49 20 69 38 112 98 90 267 -42 328 -39 18 -150 19 -3240
19 -3083 0 -3201 -1 -3240 -19z"/>
<path d="M8043 9126 c-76 -36 -108 -88 -108 -176 0 -56 4 -73 28 -108 15 -23
46 -52 70 -64 l42 -23 1177 -3 c987 -2 1183 0 1217 12 35 12 47 12 81 0 35
-12 403 -14 2378 -12 l2337 3 47 27 c67 40 93 87 93 169 0 87 -33 140 -108
175 l-52 24 -2330 -1 c-1920 0 -2337 -2 -2367 -13 -32 -11 -44 -11 -75 0 -31
11 -257 13 -1208 13 l-1170 1 -52 -24z"/>
<path d="M3905 7926 c-64 -29 -115 -110 -115 -183 0 -46 29 -110 61 -140 59
-54 49 -53 721 -53 584 0 625 2 663 19 99 46 141 158 96 256 -22 47 -64 89
-104 104 -45 17 -1283 14 -1322 -3z"/>
<path d="M6183 7914 c-25 -14 -54 -44 -69 -70 -23 -39 -26 -53 -22 -109 4 -72
19 -99 82 -149 l38 -31 4511 -3 c3179 -2 4523 0 4549 8 78 22 138 103 138 185
0 74 -57 159 -123 184 -20 8 -1378 11 -4545 11 l-4517 0 -42 -26z"/>
<path d="M9501 4318 c-104 -10 -243 -56 -340 -111 -87 -49 -227 -177 -281
-257 -189 -279 -212 -608 -63 -905 234 -470 842 -625 1282 -326 317 216 457
624 339 991 -47 146 -120 261 -235 371 -190 181 -437 265 -702 237z m190 -398
c170 -32 324 -172 373 -340 23 -77 22 -200 -3 -280 -75 -241 -334 -388 -576
-325 -222 58 -366 243 -366 470 0 141 47 250 150 349 116 110 267 155 422 126z"/>
</g>
</svg>
