<?xml version="1.0" encoding="utf-8"?>
<!-- Svg Vector Icons : http://www.onlinewebfonts.com/icon -->
<!DOCTYPE svg PUBLIC "-//W3C//DTD SVG 1.1//EN" "http://www.w3.org/Graphics/SVG/1.1/DTD/svg11.dtd">
<svg version="1.1" xmlns="http://www.w3.org/2000/svg" xmlns:xlink="http://www.w3.org/1999/xlink" x="0px" y="0px" viewBox="0 0 256 256" enable-background="new 0 0 256 256" xml:space="preserve">
<metadata> Svg Vector Icons : http://www.onlinewebfonts.com/icon </metadata>
<g><g><path fill="#71717A" d="M57.2,130.2l3.7-4.3l2,5.3c10.4,27.2,33.6,46.1,33.9,46.3c7.6,6.1,15.9,11.6,24.4,16.6c15.5,1.5,28.6,6.3,37.6,9.6c7.6,2.8,16.4,3.9,25.2,4c-14-10.9-22.1-23.5-22.6-24.3l-1.8-2.8l2.8-1.8c5.5-3.5,17.7-5.8,26.5-7c-19.7-19.1-43.8-25.5-44.1-25.6l-1.1-0.3l-0.7-0.9c-0.3-0.4-7.1-9.1-19.4-39.3c-11.8-28.9-37.1-48.9-37.4-49.2L86,56.5C66.7,39.8,42.3,39.2,42,39.2l-1.4,0.1l-1-1c-6.3-6.7-18.6-10.9-26-10.6c-2.4,0.1-3.3,0.6-3.5,0.8c-0.3,0.5-0.1,2.2,1.4,4.9c1.6,2.8,4.1,6,6.3,8.7c1.5,1.9,2.8,3.5,3.7,4.9c3.5,5.4,4.3,9.2,4.4,9.6l0,0.1C27.5,67,38.2,87,40.8,89.2c4.2,3.3,3.8,8.2,2.9,10.7c-5.3,16.2-6,30.6-2.1,42.8c2.2,6.7,5.2,11.5,7.9,14.7C52.1,136.7,56.6,130.8,57.2,130.2z"/><path fill="#71717A" d="M211.8,218.4c-14.8,2.7-36.7,4.6-53-1.5c-13.6-5-36.8-13.4-63.6-8.6c-26.7,4.8-50.9,12.9-50.9,12.9s34.7-8,48-8.6c13.3-0.6,33.4,1.3,48.8,7.9c20.3,8.8,51.5,11.4,73.9,1.3c22.5-10.1,31-16.2,31-16.2S226.6,215.7,211.8,218.4z"/></g></g>
</svg>
