<?xml version="1.0" encoding="UTF-8"?>
<svg xmlns="http://www.w3.org/2000/svg" xmlns:xlink="http://www.w3.org/1999/xlink" width="512.000000pt" height="512.000000pt" viewBox="0 0 200 250" version="1.1">
<g id="surface1">
<path style=" stroke:none;fill-rule:nonzero;fill:rgb(0%,0%,0%);fill-opacity:1;" d="M 100 12.421875 C 51.710938 12.421875 12.421875 51.707031 12.421875 100 C 12.421875 148.289062 51.710938 187.578125 100 187.578125 C 148.289062 187.578125 187.574219 148.289062 187.574219 100 C 187.578125 51.707031 148.289062 12.421875 100 12.421875 Z M 100 182.589844 C 54.460938 182.589844 17.40625 145.539062 17.40625 100 C 17.40625 54.457031 54.460938 17.402344 100 17.402344 C 145.542969 17.402344 182.59375 54.457031 182.59375 100 C 182.59375 145.539062 145.542969 182.589844 100 182.589844 Z M 100 182.589844 "/>
<path style=" stroke:none;fill-rule:nonzero;fill:rgb(0%,0%,0%);fill-opacity:1;" d="M 100 25.878906 C 59.132812 25.878906 25.878906 59.128906 25.878906 100 C 25.878906 140.867188 59.132812 174.121094 100 174.121094 C 140.871094 174.121094 174.125 140.867188 174.125 100 C 174.125 59.128906 140.871094 25.878906 100 25.878906 Z M 100 169.132812 C 61.878906 169.132812 30.859375 138.121094 30.859375 100 C 30.859375 61.875 61.878906 30.859375 100 30.859375 C 138.125 30.859375 169.140625 61.875 169.140625 100 C 169.140625 138.121094 138.125 169.132812 100 169.132812 Z M 100 169.132812 "/>
<path style=" stroke:none;fill-rule:nonzero;fill:rgb(0%,0%,0%);fill-opacity:1;" d="M 100 44.15625 C 101.375 44.15625 102.492188 43.039062 102.492188 41.664062 L 102.492188 37.089844 C 102.492188 35.714844 101.375 34.597656 100 34.597656 C 98.625 34.597656 97.511719 35.714844 97.511719 37.089844 L 97.511719 41.664062 C 97.511719 43.039062 98.625 44.15625 100 44.15625 Z M 100 44.15625 "/>
<path style=" stroke:none;fill-rule:nonzero;fill:rgb(0%,0%,0%);fill-opacity:1;" d="M 68.679688 50.730469 C 69.136719 51.527344 69.976562 51.972656 70.835938 51.972656 C 71.257812 51.972656 71.6875 51.867188 72.082031 51.636719 C 73.269531 50.949219 73.679688 49.425781 72.992188 48.234375 L 70.699219 44.269531 C 70.019531 43.085938 68.492188 42.675781 67.296875 43.359375 C 66.109375 44.046875 65.695312 45.570312 66.386719 46.761719 Z M 68.679688 50.730469 "/>
<path style=" stroke:none;fill-rule:nonzero;fill:rgb(0%,0%,0%);fill-opacity:1;" d="M 44.269531 70.699219 L 48.234375 72.988281 C 48.628906 73.21875 49.058594 73.324219 49.480469 73.324219 C 50.339844 73.324219 51.179688 72.875 51.640625 72.078125 C 52.328125 70.886719 51.917969 69.363281 50.730469 68.675781 L 46.765625 66.386719 C 45.5625 65.683594 44.039062 66.101562 43.359375 67.296875 C 42.671875 68.488281 43.082031 70.011719 44.269531 70.699219 Z M 44.269531 70.699219 "/>
<path style=" stroke:none;fill-rule:nonzero;fill:rgb(0%,0%,0%);fill-opacity:1;" d="M 44.15625 100 C 44.15625 98.625 43.042969 97.507812 41.667969 97.507812 L 37.089844 97.507812 C 35.714844 97.507812 34.597656 98.625 34.597656 100 C 34.597656 101.375 35.714844 102.492188 37.089844 102.492188 L 41.667969 102.492188 C 43.042969 102.492188 44.15625 101.375 44.15625 100 Z M 44.15625 100 "/>
<path style=" stroke:none;fill-rule:nonzero;fill:rgb(0%,0%,0%);fill-opacity:1;" d="M 155.730469 129.296875 L 151.765625 127.007812 C 150.570312 126.3125 149.042969 126.730469 148.359375 127.917969 C 147.671875 129.109375 148.082031 130.632812 149.269531 131.320312 L 153.234375 133.609375 C 153.628906 133.839844 154.054688 133.945312 154.480469 133.945312 C 155.339844 133.945312 156.179688 133.5 156.640625 132.703125 C 157.328125 131.507812 156.917969 129.984375 155.730469 129.296875 Z M 155.730469 129.296875 "/>
<path style=" stroke:none;fill-rule:nonzero;fill:rgb(0%,0%,0%);fill-opacity:1;" d="M 48.234375 127.007812 L 44.269531 129.296875 C 43.082031 129.984375 42.671875 131.507812 43.359375 132.703125 C 43.820312 133.5 44.660156 133.945312 45.519531 133.945312 C 45.941406 133.945312 46.371094 133.839844 46.765625 133.609375 L 50.730469 131.320312 C 51.917969 130.632812 52.328125 129.109375 51.640625 127.917969 C 50.957031 126.734375 49.433594 126.324219 48.234375 127.007812 Z M 48.234375 127.007812 "/>
<path style=" stroke:none;fill-rule:nonzero;fill:rgb(0%,0%,0%);fill-opacity:1;" d="M 162.910156 97.507812 L 158.332031 97.507812 C 156.957031 97.507812 155.84375 98.625 155.84375 100 C 155.84375 101.375 156.957031 102.492188 158.332031 102.492188 L 162.910156 102.492188 C 164.285156 102.492188 165.402344 101.375 165.402344 100 C 165.402344 98.625 164.285156 97.507812 162.910156 97.507812 Z M 162.910156 97.507812 "/>
<path style=" stroke:none;fill-rule:nonzero;fill:rgb(0%,0%,0%);fill-opacity:1;" d="M 150.519531 73.324219 C 150.941406 73.324219 151.371094 73.21875 151.761719 72.988281 L 155.730469 70.699219 C 156.917969 70.011719 157.328125 68.488281 156.640625 67.296875 C 155.957031 66.105469 154.429688 65.695312 153.234375 66.386719 L 149.269531 68.675781 C 148.078125 69.363281 147.667969 70.886719 148.359375 72.078125 C 148.820312 72.875 149.660156 73.324219 150.519531 73.324219 Z M 150.519531 73.324219 "/>
<path style=" stroke:none;fill-rule:nonzero;fill:rgb(0%,0%,0%);fill-opacity:1;" d="M 127.917969 51.636719 C 128.3125 51.867188 128.738281 51.972656 129.164062 51.972656 C 130.023438 51.972656 130.863281 51.523438 131.320312 50.730469 L 133.613281 46.761719 C 134.304688 45.570312 133.890625 44.046875 132.703125 43.359375 C 131.511719 42.664062 129.984375 43.082031 129.300781 44.269531 L 127.007812 48.234375 C 126.320312 49.425781 126.730469 50.953125 127.917969 51.636719 Z M 127.917969 51.636719 "/>
<path style=" stroke:none;fill-rule:nonzero;fill:rgb(0%,0%,0%);fill-opacity:1;" d="M 99.347656 87.558594 C 96.023438 87.734375 92.96875 89.191406 90.742188 91.664062 C 88.515625 94.136719 87.386719 97.328125 87.558594 100.652344 C 87.59375 101.316406 87.71875 101.960938 87.851562 102.597656 L 82.382812 108.675781 C 81.816406 109.304688 81.605469 110.179688 81.832031 110.996094 L 83.265625 116.246094 C 83.519531 117.1875 84.304688 117.894531 85.265625 118.050781 L 90.636719 118.925781 C 90.769531 118.949219 90.90625 118.957031 91.039062 118.957031 C 91.738281 118.957031 92.414062 118.664062 92.890625 118.132812 L 98.152344 112.289062 C 98.757812 112.378906 99.363281 112.457031 99.984375 112.457031 C 100.203125 112.457031 100.429688 112.453125 100.652344 112.4375 C 103.976562 112.265625 107.03125 110.804688 109.257812 108.332031 C 111.484375 105.859375 112.613281 102.667969 112.441406 99.347656 C 112.394531 98.492188 112.261719 97.660156 112.050781 96.851562 L 134.308594 72.132812 C 134.589844 71.820312 134.789062 71.4375 134.886719 71.023438 L 136.988281 61.851562 C 137.003906 61.785156 136.984375 61.722656 136.992188 61.660156 C 137.015625 61.496094 137.011719 61.339844 137.003906 61.175781 C 136.996094 61 136.980469 60.835938 136.9375 60.667969 C 136.921875 60.609375 136.933594 60.546875 136.914062 60.488281 C 136.882812 60.402344 136.820312 60.339844 136.78125 60.257812 C 136.703125 60.097656 136.625 59.949219 136.515625 59.808594 C 136.421875 59.6875 136.324219 59.582031 136.210938 59.480469 C 136.085938 59.367188 135.960938 59.269531 135.8125 59.179688 C 135.675781 59.101562 135.539062 59.042969 135.390625 58.988281 C 135.292969 58.953125 135.21875 58.886719 135.113281 58.863281 C 135.042969 58.847656 134.976562 58.867188 134.90625 58.859375 C 134.753906 58.835938 134.605469 58.839844 134.445312 58.847656 C 134.269531 58.855469 134.097656 58.867188 133.929688 58.914062 C 133.871094 58.929688 133.808594 58.917969 133.75 58.9375 L 124.84375 61.984375 C 124.445312 62.121094 124.085938 62.359375 123.800781 62.675781 L 101.308594 87.65625 C 100.660156 87.585938 100.007812 87.527344 99.347656 87.558594 Z M 90.097656 113.789062 L 87.648438 113.386719 L 86.996094 110.996094 L 90.101562 107.546875 C 90.566406 108.15625 91.082031 108.734375 91.664062 109.257812 C 92.136719 109.683594 92.648438 110.039062 93.167969 110.382812 Z M 127.070312 66.488281 L 131.128906 65.101562 L 130.171875 69.28125 L 109.601562 92.128906 C 109.207031 91.648438 108.804688 91.167969 108.335938 90.742188 C 107.753906 90.21875 107.125 89.769531 106.46875 89.371094 Z M 107.464844 99.609375 C 107.570312 101.601562 106.890625 103.515625 105.554688 105 C 102.804688 108.066406 98.070312 108.320312 95 105.554688 C 91.9375 102.796875 91.6875 98.058594 94.445312 94.996094 C 95.78125 93.511719 97.613281 92.640625 99.605469 92.535156 C 99.738281 92.527344 99.875 92.523438 100.007812 92.523438 C 101.855469 92.523438 103.617188 93.199219 105 94.445312 C 106.484375 95.78125 107.359375 97.613281 107.464844 99.609375 Z M 107.464844 99.609375 "/>
<path style=" stroke:none;fill-rule:nonzero;fill:rgb(0%,0%,0%);fill-opacity:1;" d="M 100 56.03125 C 101.375 56.03125 102.492188 54.914062 102.492188 53.539062 C 102.492188 52.164062 101.375 51.046875 100 51.046875 C 73.007812 51.046875 51.050781 73.007812 51.050781 100 C 51.050781 101.375 52.167969 102.492188 53.542969 102.492188 C 54.914062 102.492188 56.03125 101.375 56.03125 100 C 56.03125 75.757812 75.757812 56.03125 100 56.03125 Z M 100 56.03125 "/>
<path style=" stroke:none;fill-rule:nonzero;fill:rgb(0%,0%,0%);fill-opacity:1;" d="M 137.816406 129.660156 L 62.183594 129.660156 C 60.808594 129.660156 59.695312 130.777344 59.695312 132.152344 L 59.695312 145.285156 C 59.695312 146.65625 60.808594 147.777344 62.183594 147.777344 L 137.816406 147.777344 C 139.191406 147.777344 140.308594 146.660156 140.308594 145.285156 L 140.308594 132.152344 C 140.304688 130.777344 139.191406 129.660156 137.816406 129.660156 Z M 74.820312 142.789062 L 64.675781 142.789062 L 64.675781 134.640625 L 74.820312 134.640625 Z M 89.945312 142.789062 L 79.800781 142.789062 L 79.800781 134.640625 L 89.945312 134.640625 Z M 105.070312 142.789062 L 94.929688 142.789062 L 94.929688 134.640625 L 105.070312 134.640625 Z M 120.199219 142.789062 L 110.054688 142.789062 L 110.054688 134.640625 L 120.199219 134.640625 Z M 135.324219 142.789062 L 125.179688 142.789062 L 125.179688 134.640625 L 135.324219 134.640625 Z M 135.324219 142.789062 "/>
</g>
</svg>
