<?xml version="1.0" standalone="no"?>
<!DOCTYPE svg PUBLIC "-//W3C//DTD SVG 20010904//EN"
 "http://www.w3.org/TR/2001/REC-SVG-20010904/DTD/svg10.dtd">
<svg version="1.0" xmlns="http://www.w3.org/2000/svg"
 width="512.000000pt" height="512.000000pt" viewBox="0 0 512.000000 512.000000"
 preserveAspectRatio="xMidYMid meet">
 
<g transform="translate(0.000000,512.000000) scale(0.100000,-0.100000)"
fill="#000000" stroke="none">
<path d="M2335 4964 c-22 -2 -87 -11 -145 -20 -971 -145 -1757 -871 -1980
-1829 -45 -193 -55 -292 -55 -540 0 -262 11 -359 65 -575 66 -265 185 -534
336 -757 115 -170 182 -247 448 -512 197 -197 228 -224 256 -224 28 0 57 26
243 210 l212 211 65 -30 c36 -17 99 -43 140 -58 l75 -28 5 -301 c5 -296 5
-301 28 -323 l23 -23 509 0 509 0 23 23 c23 22 23 27 28 323 l5 301 75 28 c41
15 104 41 140 58 l65 30 212 -211 c186 -185 215 -210 243 -210 28 0 70 38 392
361 323 322 361 364 361 392 0 28 -25 57 -211 243 l-211 212 31 65 c16 36 43
99 58 140 l28 75 301 5 c296 5 301 5 323 28 l23 23 0 509 0 509 -23 23 c-22
23 -27 23 -323 28 l-301 5 -28 75 c-15 41 -42 104 -58 140 l-31 65 211 212
c187 187 211 215 211 244 0 28 -27 59 -259 289 -335 332 -471 435 -759 576
-227 110 -450 181 -695 219 -101 16 -473 28 -565 19z m600 -193 c361 -65 668
-196 960 -411 50 -37 114 -88 143 -115 l53 -48 -52 -54 c-30 -29 -57 -53 -62
-53 -5 0 -57 39 -115 86 -299 240 -635 384 -1027 439 -131 19 -405 19 -547 0
-771 -102 -1428 -634 -1683 -1366 -81 -233 -115 -438 -115 -697 1 -489 156
-925 466 -1308 41 -51 74 -96 74 -101 0 -5 -24 -32 -53 -62 l-54 -52 -48 53
c-213 236 -392 569 -479 888 -66 244 -93 576 -66 822 77 713 476 1334 1094
1701 257 152 543 250 856 293 148 20 504 12 655 -15z m-50 -314 c255 -49 475
-132 682 -258 82 -50 239 -167 273 -203 l24 -27 -322 -322 c-253 -254 -322
-328 -322 -348 0 -16 25 -56 69 -112 123 -153 190 -300 217 -481 40 -258 -35
-536 -201 -743 -211 -263 -559 -400 -891 -349 -181 27 -328 94 -481 217 -56
44 -96 69 -112 69 -20 0 -94 -69 -348 -322 l-322 -322 -26 24 c-37 35 -154
192 -204 273 -126 207 -210 428 -258 682 -24 128 -29 447 -9 585 64 433 248
802 553 1105 294 292 651 470 1080 540 115 19 483 14 598 -8z m1432 -479 l113
-112 -205 -207 c-159 -159 -205 -212 -205 -231 0 -14 24 -76 54 -138 30 -62
67 -152 81 -199 43 -135 16 -126 355 -129 l290 -3 0 -399 0 -399 -290 -3
c-339 -3 -312 6 -355 -129 -14 -47 -51 -137 -81 -199 -30 -62 -54 -124 -54
-137 0 -20 48 -73 206 -231 l206 -205 -283 -283 -283 -284 -207 205 c-159 158
-212 205 -231 205 -14 0 -77 -24 -139 -54 -63 -30 -152 -67 -199 -81 -134 -43
-125 -17 -128 -355 l-3 -290 -399 0 -399 0 -3 290 c-3 339 6 312 -128 355 -47
14 -138 51 -202 82 -89 42 -123 54 -143 49 -16 -4 -105 -86 -226 -208 l-200
-202 -117 117 -117 117 395 395 c217 217 399 395 403 395 5 0 42 -24 82 -54
192 -140 408 -208 655 -208 299 0 551 99 764 302 233 221 348 490 348 810 0
247 -68 463 -208 655 -30 40 -54 77 -54 82 0 8 781 793 790 793 2 0 55 -50
117 -112z"/>
<path d="M2530 4387 c-41 -21 -51 -53 -48 -159 3 -85 6 -100 25 -119 29 -29
77 -29 106 0 20 20 22 32 22 131 0 96 -2 112 -20 129 -28 27 -56 33 -85 18z"/>
<path d="M1638 4146 c-23 -17 -39 -61 -31 -83 14 -36 95 -168 111 -180 24 -19
65 -16 90 7 21 20 26 36 22 73 -2 23 -87 168 -108 185 -20 16 -62 15 -84 -2z"/>
<path d="M3398 4148 c-21 -17 -106 -162 -108 -185 -6 -53 24 -93 69 -93 37 1
53 16 103 100 56 96 59 105 47 137 -18 49 -74 69 -111 41z"/>
<path d="M2530 3827 c-49 -25 -50 -31 -50 -512 l0 -450 -48 -20 c-60 -24 -132
-97 -157 -157 l-20 -47 -302 -3 c-296 -3 -303 -3 -324 -25 -14 -13 -22 -34
-22 -53 0 -19 8 -40 22 -53 21 -22 28 -22 324 -25 l302 -3 18 -44 c62 -149
236 -224 397 -170 76 25 160 109 185 185 54 161 -21 335 -170 397 l-44 18 -3
462 c-3 447 -4 463 -23 482 -28 27 -56 33 -85 18z m111 -1130 c52 -35 79 -82
79 -137 0 -122 -143 -203 -241 -137 -77 52 -101 140 -58 217 43 76 150 104
220 57z"/>
<path d="M1011 3509 c-47 -18 -66 -75 -38 -111 15 -20 154 -102 186 -111 33
-8 79 18 87 48 13 51 -2 72 -91 124 -99 58 -112 63 -144 50z"/>
<path d="M3043 3140 c-31 -12 -56 -55 -50 -82 4 -13 29 -50 56 -82 173 -204
206 -468 90 -706 -59 -119 -170 -230 -289 -289 -238 -116 -502 -83 -706 90
-32 27 -69 52 -82 56 -47 12 -101 -52 -83 -100 18 -46 137 -137 244 -187 158
-74 367 -94 532 -51 351 93 595 403 596 759 0 56 -5 130 -11 164 -24 132 -97
279 -187 375 -51 55 -75 67 -110 53z"/>
<path d="M770 2628 c-38 -20 -54 -61 -38 -95 21 -44 52 -54 160 -51 85 3 100
6 119 25 29 29 29 77 0 106 -19 19 -34 22 -119 25 -66 2 -105 -2 -122 -10z"/>
<path d="M1140 1827 c-107 -56 -170 -100 -176 -122 -10 -39 4 -73 35 -89 36
-19 57 -13 158 46 87 51 102 72 89 123 -3 13 -20 31 -36 40 -35 18 -38 18 -70
2z"/>
<path d="M4480 2560 l0 -80 80 0 80 0 0 80 0 80 -80 0 -80 0 0 -80z"/>
<path d="M3915 1200 l-49 -50 54 -55 54 -55 53 52 53 52 -52 53 c-29 29 -55
53 -58 53 -3 0 -28 -23 -55 -50z"/>
<path d="M2480 560 l0 -80 80 0 80 0 0 80 0 80 -80 0 -80 0 0 -80z"/>
</g>
</svg>
